<svg width="512" height="512" viewBox="0 0 512 512" fill="none" xmlns="http://www.w3.org/2000/svg">
<circle cx="256" cy="256" r="256" fill="url(#paint0_linear_73_6)"/>
<path d="M134.076 359V351.5H224.826C232.16 351.5 238.41 350.333 243.576 348C248.743 345.667 252.743 341.333 255.576 335C258.41 328.5 259.826 319.333 259.826 307.5C259.826 297 258.576 288.833 256.076 283C253.743 277.167 249.66 273.083 243.826 270.75C238.16 268.417 230.41 267.25 220.576 267.25L213.076 258.5C231.243 258.5 247.16 260.25 260.826 263.75C274.493 267.083 285.16 272.583 292.826 280.25C300.493 287.75 304.326 297.833 304.326 310.5C304.326 321.667 301.243 330.833 295.076 338C289.076 345.167 280.826 350.5 270.326 354C259.826 357.333 247.993 359 234.826 359H134.076ZM159.076 355.25V170.5H198.576V355.25H159.076ZM184.826 267.25V258.5H224.826C231.826 258.5 237.493 257.417 241.826 255.25C246.326 253.083 249.576 249.083 251.576 243.25C253.743 237.417 254.826 229 254.826 218C254.826 206.833 253.743 198.417 251.576 192.75C249.576 186.917 246.326 183 241.826 181C237.493 179 231.826 178 224.826 178H134.076V170.5H234.826C246.493 170.5 256.993 172.25 266.326 175.75C275.826 179.25 283.326 184.5 288.826 191.5C294.493 198.5 297.326 207.25 297.326 217.75C297.326 228.583 294.243 237.75 288.076 245.25C281.91 252.583 273.41 258.083 262.576 261.75C251.743 265.417 239.16 267.25 224.826 267.25H184.826ZM349.82 362.25C343.82 362.25 338.654 360.167 334.32 356C330.154 351.667 328.07 346.5 328.07 340.5C328.07 334.5 330.154 329.417 334.32 325.25C338.654 320.917 343.82 318.75 349.82 318.75C355.82 318.75 360.904 320.917 365.07 325.25C369.404 329.417 371.57 334.5 371.57 340.5C371.57 346.5 369.404 351.667 365.07 356C360.904 360.167 355.82 362.25 349.82 362.25Z" fill="white"/>
<defs>
<linearGradient id="paint0_linear_73_6" x1="10" y1="173" x2="360.5" y2="492.5" gradientUnits="userSpaceOnUse">
<stop offset="0.00140983" stop-color="#5080FA"/>
<stop offset="1" stop-color="#070708"/>
</linearGradient>
</defs>
</svg>
