<svg width="512" height="512" viewBox="0 0 512 512" fill="none" xmlns="http://www.w3.org/2000/svg">
<path d="M454.65 169.4C451.684 166.413 448.155 164.044 444.267 162.43C440.379 160.817 436.209 159.991 432 160H368V144C368 114.296 356.2 85.8081 335.196 64.804C314.192 43.8 285.704 32 256 32C226.296 32 197.808 43.8 176.804 64.804C155.8 85.8081 144 114.296 144 144V160H80C71.5131 160 63.3737 163.371 57.3726 169.373C51.3714 175.374 48 183.513 48 192V408C48 447 81 480 120 480H392C410.865 480.006 428.983 472.63 442.48 459.45C449.272 452.97 454.681 445.181 458.38 436.553C462.078 427.925 463.99 418.637 464 409.25V192C464.013 187.802 463.193 183.643 461.588 179.764C459.984 175.884 457.625 172.362 454.65 169.4ZM176 144C176 122.783 184.429 102.434 199.431 87.4315C214.434 72.4285 234.783 64 256 64C277.217 64 297.566 72.4285 312.569 87.4315C327.571 102.434 336 122.783 336 144V160H176V144ZM368 240C368 269.704 356.2 298.192 335.196 319.196C314.192 340.2 285.704 352 256 352C226.296 352 197.808 340.2 176.804 319.196C155.8 298.192 144 269.704 144 240V224C144 219.757 145.686 215.687 148.686 212.686C151.687 209.686 155.757 208 160 208C164.243 208 168.313 209.686 171.314 212.686C174.314 215.687 176 219.757 176 224V240C176 261.217 184.429 281.566 199.431 296.569C214.434 311.571 234.783 320 256 320C277.217 320 297.566 311.571 312.569 296.569C327.571 281.566 336 261.217 336 240V224C336 219.757 337.686 215.687 340.686 212.686C343.687 209.686 347.757 208 352 208C356.243 208 360.313 209.686 363.314 212.686C366.314 215.687 368 219.757 368 224V240Z" fill="white"/>
</svg>
