<svg width="512" height="512" viewBox="0 0 512 512" fill="none" xmlns="http://www.w3.org/2000/svg">
<path d="M432 230.7C421.913 226.272 411.016 223.99 400 224H112C100.985 223.989 90.0881 226.268 80 230.69C65.742 236.925 53.6094 247.179 45.0849 260.198C36.5605 273.218 32.0136 288.438 32 304V416C32 420.243 33.6857 424.313 36.6863 427.314C39.6869 430.314 43.7565 432 48 432C52.2435 432 56.3131 430.314 59.3137 427.314C62.3143 424.313 64 420.243 64 416V408C64.0259 405.886 64.8771 403.867 66.3718 402.372C67.8665 400.877 69.8863 400.026 72 400H440C442.114 400.026 444.133 400.877 445.628 402.372C447.123 403.867 447.974 405.886 448 408V416C448 420.243 449.686 424.313 452.686 427.314C455.687 430.314 459.757 432 464 432C468.243 432 472.313 430.314 475.314 427.314C478.314 424.313 480 420.243 480 416V304C479.984 288.44 475.437 273.221 466.912 260.204C458.388 247.187 446.256 236.934 432 230.7ZM376 80H136C121.148 80 106.904 85.9 96.402 96.402C85.9 106.904 80 121.148 80 136V208C80.0004 208.62 80.1449 209.231 80.4221 209.786C80.6992 210.34 81.1015 210.822 81.597 211.195C82.0925 211.567 82.6678 211.819 83.2775 211.931C83.8871 212.043 84.5145 212.012 85.11 211.84C93.8446 209.285 102.899 207.992 112 208H116.23C117.217 208.006 118.172 207.647 118.911 206.992C119.649 206.336 120.119 205.431 120.23 204.45C121.103 196.632 124.825 189.409 130.685 184.161C136.545 178.913 144.133 176.008 152 176H208C215.872 176.001 223.467 178.903 229.334 184.151C235.201 189.4 238.927 196.627 239.8 204.45C239.911 205.431 240.381 206.336 241.119 206.992C241.858 207.647 242.813 208.006 243.8 208H268.26C269.247 208.006 270.202 207.647 270.941 206.992C271.679 206.336 272.149 205.431 272.26 204.45C273.132 196.637 276.85 189.419 282.704 184.171C288.558 178.924 296.139 176.015 304 176H360C367.872 176.001 375.467 178.903 381.334 184.151C387.201 189.4 390.927 196.627 391.8 204.45C391.911 205.431 392.381 206.336 393.119 206.992C393.858 207.647 394.813 208.006 395.8 208H400C409.101 207.996 418.156 209.292 426.89 211.85C427.486 212.022 428.115 212.053 428.725 211.941C429.335 211.828 429.911 211.575 430.407 211.202C430.903 210.828 431.305 210.345 431.581 209.789C431.858 209.233 432.001 208.621 432 208V136C432 121.148 426.1 106.904 415.598 96.402C405.096 85.9 390.852 80 376 80Z" fill="white"/>
</svg>
