<svg width="512" height="512" viewBox="0 0 512 512" fill="none" xmlns="http://www.w3.org/2000/svg">
<path d="M161.35 242C162.79 240.47 164.518 239.238 166.435 238.376C168.351 237.514 170.419 237.038 172.519 236.974C174.62 236.911 176.712 237.263 178.677 238.008C180.642 238.754 182.44 239.879 183.97 241.32C257.6 310.68 331.48 352.88 418.42 374.39C430.15 342.39 431.19 307.17 421.06 272.81C407.62 227.22 376.32 187.5 330.57 157.95C289.73 131.57 248.91 124.7 209.42 118.06C159.6 109.68 112.54 101.76 67.63 54.21C62.63 48.95 55.82 46.84 49.31 48.55C41.87 50.55 36.88 56.43 34.49 66.15C28.89 88.9 32.49 152.66 48.24 219.97C73.53 328.11 113.89 382.83 143.3 409.7C181.3 444.39 230.92 463.6 280.23 463.6C289.525 463.615 298.807 462.933 308 461.56C349.71 455.24 384.43 434.29 404 403.81C314.51 380.53 238.06 336.26 162 264.65C160.467 263.207 159.235 261.476 158.372 259.556C157.51 257.635 157.035 255.564 156.975 253.46C156.914 251.356 157.27 249.26 158.02 247.294C158.771 245.327 159.903 243.528 161.35 242ZM467.43 384.19C450.6 381.6 434.3 378.35 418.43 374.42C415.167 383.327 411.107 391.922 406.3 400.1C405.57 401.35 404.8 402.59 404.01 403.81C423.312 408.807 442.858 412.812 462.57 415.81C464.668 416.179 466.817 416.125 468.894 415.652C470.97 415.179 472.931 414.296 474.662 413.055C476.393 411.814 477.859 410.24 478.973 408.426C480.088 406.611 480.829 404.592 481.153 402.487C481.477 400.382 481.378 398.234 480.861 396.168C480.344 394.102 479.42 392.16 478.143 390.456C476.866 388.752 475.261 387.32 473.423 386.244C471.585 385.168 469.551 384.47 467.44 384.19H467.43Z" fill="white"/>
</svg>
