<svg width="512" height="512" viewBox="0 0 512 512" fill="none" xmlns="http://www.w3.org/2000/svg">
<path d="M357.57 223.94C368.082 223.969 378.496 221.912 388.208 217.889C397.92 213.865 406.738 207.955 414.15 200.5L491.15 123.55C497.24 117.46 497.8 107.55 492 101.16C490.544 99.5546 488.777 98.2617 486.806 97.3599C484.835 96.458 482.702 95.966 480.535 95.9136C478.368 95.8613 476.214 96.2497 474.201 97.0552C472.189 97.8608 470.362 99.0668 468.83 100.6L400.2 169.18C397.896 171.482 394.772 172.774 391.515 172.774C388.258 172.774 385.134 171.482 382.83 169.18C378.04 164.4 378.3 156.32 383.08 151.54L451.41 83.21C452.942 81.6782 454.146 79.8514 454.951 77.8403C455.756 75.8291 456.143 73.6755 456.091 71.51C456.039 69.3445 455.547 67.2122 454.646 65.2423C453.745 63.2724 452.454 61.5059 450.85 60.05C447.954 57.4236 444.179 55.9785 440.27 56C435.839 56.003 431.591 57.7656 428.46 60.9L360.19 129.16C357.886 131.462 354.762 132.754 351.505 132.754C348.248 132.754 345.124 131.462 342.82 129.16C338.04 124.38 338.29 116.3 343.07 111.52L411.4 43.21C412.932 41.6782 414.136 39.8514 414.941 37.8403C415.746 35.8291 416.133 33.6755 416.081 31.51C416.029 29.3445 415.537 27.2122 414.636 25.2423C413.735 23.2724 412.444 21.5059 410.84 20.05C407.944 17.4236 404.169 15.9785 400.26 16C395.83 16.0052 391.583 17.7674 388.45 20.9L311.5 97.85C304.044 105.264 298.134 114.083 294.11 123.797C290.087 133.51 288.03 143.926 288.06 154.44V162.67C288.062 164.774 287.648 166.858 286.843 168.802C286.039 170.746 284.858 172.513 283.37 174L247.76 209.62C247.388 209.992 246.947 210.287 246.462 210.488C245.976 210.69 245.456 210.793 244.93 210.793C244.404 210.793 243.884 210.69 243.398 210.488C242.913 210.287 242.471 209.992 242.1 209.62L68.82 36.33C65.8293 33.3359 61.7742 31.6486 57.5424 31.6373C53.3105 31.6261 49.2465 33.2918 46.24 36.27C31.09 51.28 23 72.47 23 97.54C22.9 138.94 44.66 186.54 79.79 221.62L165.24 307.07C177.385 319.19 193.842 325.998 211 326C216.47 326.002 221.918 325.303 227.21 323.92C228.539 323.572 229.906 323.394 231.28 323.39C235.297 323.391 239.165 324.909 242.11 327.64L253.5 338.16C256.438 341.161 258.088 345.19 258.1 349.39V354.93C258.071 367.524 263.02 379.619 271.87 388.58L361.92 480.15L362.01 480.25C372.005 490.243 385.56 495.857 399.694 495.856C413.827 495.855 427.382 490.24 437.375 480.245C447.368 470.25 452.982 456.695 452.981 442.561C452.98 428.428 447.365 414.873 437.37 404.88L302.39 269.9C302.018 269.529 301.723 269.087 301.522 268.602C301.32 268.116 301.217 267.596 301.217 267.07C301.217 266.544 301.32 266.024 301.522 265.538C301.723 265.053 302.018 264.611 302.39 264.24L338 228.63C339.486 227.143 341.251 225.963 343.193 225.158C345.136 224.354 347.218 223.94 349.32 223.94H357.57Z" fill="white"/>
<path d="M211 358C185.383 357.947 160.821 347.797 142.64 329.75L128.78 315.89C127.28 314.394 125.248 313.554 123.13 313.554C121.012 313.554 118.98 314.394 117.48 315.89L32.48 400.45C17.33 415.6 11.92 437.9 19.42 459.74C19.8398 460.97 20.3374 462.173 20.91 463.34C31 484 50.58 496 72 496C79.3663 496.018 86.6631 494.574 93.4675 491.752C100.272 488.93 106.449 484.786 111.64 479.56L225 365.66C225.477 365.173 225.842 364.588 226.07 363.946C226.298 363.303 226.384 362.619 226.32 361.94V361.68C226.276 361.056 226.105 360.448 225.819 359.892C225.534 359.336 225.138 358.844 224.657 358.445C224.176 358.046 223.619 357.749 223.019 357.571C222.42 357.393 221.791 357.338 221.17 357.41C217.793 357.785 214.398 357.981 211 358Z" fill="white"/>
</svg>
