<svg width="512" height="512" viewBox="0 0 512 512" fill="none" xmlns="http://www.w3.org/2000/svg">
<path d="M414.56 94.92V80C414.56 75.7565 412.874 71.6869 409.874 68.6863C406.873 65.6857 402.803 64 398.56 64H113.44C109.197 64 105.127 65.6857 102.126 68.6863C99.1257 71.6869 97.44 75.7565 97.44 80V94.92C95.98 106.29 87.79 185.66 134.37 239.61C159.24 268.41 194.73 284.46 240 287.47V416H160C155.757 416 151.687 417.686 148.686 420.686C145.686 423.687 144 427.757 144 432C144 436.243 145.686 440.313 148.686 443.314C151.687 446.314 155.757 448 160 448H352C356.243 448 360.313 446.314 363.314 443.314C366.314 440.313 368 436.243 368 432C368 427.757 366.314 423.687 363.314 420.686C360.313 417.686 356.243 416 352 416H272V287.47C317.27 284.47 352.76 268.41 377.63 239.61C424.21 185.66 416 106.29 414.56 94.92ZM129.26 98.33C129.38 97.5591 129.44 96.7801 129.44 96H382.56C382.56 96.7801 382.62 97.5591 382.74 98.33C384.467 113.504 384.467 128.826 382.74 144H129.32C127.593 128.827 127.573 113.508 129.26 98.33Z" fill="white"/>
</svg>
