<svg width="267" height="267" viewBox="0 0 267 267" fill="none" xmlns="http://www.w3.org/2000/svg">
<g clip-path="url(#clip0_141_30)">
<path d="M64.3999 2C34.2666 7.46667 8.39991 32.8 1.99991 63.3333C-1.86676 81.6 0.53324 99.0667 8.93324 116C12.7999 123.6 17.3332 129.467 28.3999 140.933L42.9332 155.867L41.3332 160.667C37.4666 172.4 45.7332 184 57.9999 184C62.5332 184 62.6666 184.133 62.6666 188.933C62.6666 198.267 71.0666 206.667 80.5332 206.667C83.3332 206.667 83.9999 207.333 83.9999 210.133C83.9999 219.467 92.6666 228 101.867 228C104.8 228 106.533 228.533 106 229.333C104.667 231.467 108 241.467 111.2 244.667C115.867 249.333 123.2 250.933 129.733 248.667C133.333 247.467 135.867 247.2 137.467 248.133C141.733 250.4 150 249.467 154.8 246.267C158 244.267 159.867 241.467 161.333 237.2L163.333 230.933L169.467 231.067C173.333 231.2 177.067 230.267 179.2 228.8C184 225.733 188 218.933 188 213.867C188 209.867 188.267 209.6 194.133 208.933C204.4 207.867 211.733 197.867 209.733 187.867C209.067 184.533 209.467 184 211.867 184C223.2 184 231.6 169.2 226.533 158.133C225.067 154.933 225.733 154 237.6 141.6C257.6 120.8 264.933 106 266.267 84.1333C269.467 31.8667 222 -9.06667 170.667 1.86667C159.467 4.26667 149.067 8.93334 140.133 15.7333L133.067 21.0667L126.8 16.4C117.733 9.33334 105.467 4 93.7332 2C81.1999 -0.266665 76.9332 -0.266665 64.3999 2ZM100.267 10.1333C108.8 12.8 114.8 15.7333 122.533 21.3333L128.4 25.6L96.9332 57.0667C76.3999 77.7333 65.1999 90 64.5332 92.4C64.1332 94.5333 63.9999 98.6667 64.3999 101.6C65.1999 108 72.7999 116.533 79.5999 118.8C88.2666 121.6 91.1999 119.733 114.4 96.9333L136.133 75.3333L178.667 118C219.6 158.933 221.333 160.933 221.333 165.733C221.333 172.533 216.667 177.333 209.867 177.333C205.333 177.333 203.333 175.733 180.533 153.2C156.667 129.467 152 126.133 152 132.933C152 134.267 163.467 146.8 177.6 160.933C201.6 184.933 203.2 186.933 203.2 191.467C203.2 197.6 198 202.667 191.6 202.667C187.867 202.667 184.133 199.467 160.267 175.733C134.667 150.133 133.067 148.8 131.333 151.2C130.267 152.667 129.333 154.267 129.333 154.8C129.333 155.467 141.067 167.867 155.333 182.533C183.867 211.733 184.8 213.2 178.133 220.8C172.133 228 159.2 224.267 160.933 216C162.533 207.6 155.2 196.8 146.533 195.067C143.333 194.533 142.933 194 144 191.867C146.133 188.133 145.6 181.067 142.933 176.133C140.267 171.2 133.333 166.667 128.4 166.667C125.733 166.667 125.333 166 125.333 160.933C125.333 147.333 113.6 140 99.1999 144.667C96.7999 145.333 96.2666 144.933 95.5999 141.733C93.8666 132.8 84.5332 126.8 74.9332 128.667C71.3332 129.333 67.3332 132.267 58.9332 140.4L47.8666 151.333L34.1332 137.333C18.5332 121.333 13.0666 112.533 9.33324 97.8667C4.79991 80.2667 6.26657 64.8 14.1332 48.4C29.4666 16.2667 65.9999 1.21948e-06 100.267 10.1333ZM203.867 8.66667C242.533 17.8667 267.067 57.3333 258 95.8667C254.667 110 247.6 121.467 233.2 136.533L220.133 150L179.067 108.933C156.533 86.4 137.067 68 136 68C134.933 68 124 78 111.733 90.2667C91.3332 110.667 89.0666 112.533 84.6666 112.533C77.7332 112.533 70.6666 105.333 70.6666 98.1333C70.6666 92.9333 71.5999 91.8667 104.4 58.9333C124.533 38.6667 141.467 22.8 146.667 19.4667C154.8 14 167.2 8.8 174.667 7.6C182.533 6.26667 196 6.8 203.867 8.66667ZM84.2666 136.133C87.4666 137.867 90.9332 145.733 89.8666 148.933C89.3332 150.267 83.1999 157.2 76.1332 164.267C65.3332 175.333 62.7999 177.333 59.1999 177.333C53.0666 177.333 50.7999 176.133 48.5332 171.733C45.0666 165.2 47.0666 161.333 61.1999 147.467C74.7999 134.133 77.8666 132.667 84.2666 136.133ZM113.2 151.333C117.467 153.467 118.667 155.733 118.667 161.6C118.667 165.067 116.133 168.4 102.4 182.267C93.3332 191.333 84.6666 199.067 82.9332 199.6C79.1999 200.533 72.2666 197.733 70.6666 194.533C69.8666 193.2 69.3332 190.133 69.3332 187.733C69.3332 183.733 71.1999 181.333 86.3999 166.267C104.4 148.533 106.133 147.6 113.2 151.333ZM132.4 174.933C136.8 177.2 138.533 180.133 138.667 185.333C138.667 189.333 137.067 191.467 122.933 205.6C109.333 219.333 106.667 221.333 102.8 221.333C96.9332 221.333 93.9999 219.6 91.9999 214.8C89.3332 208.267 91.4666 204.267 104.4 190.933C121.2 173.733 125.6 171.2 132.4 174.933ZM150.8 205.2C157.6 212.133 155.733 217.2 141.067 231.6C135.733 236.933 129.733 241.867 127.733 242.533C119.067 245.733 110.133 237.067 113.467 228.4C114.933 224.133 133.867 204.4 138 202.667C142.933 200.533 146.8 201.333 150.8 205.2ZM156 232C156 237.867 150.8 242.667 144.4 242.667H139.467L146.667 235.333C150.667 231.333 154.4 228 154.933 228C155.467 228 156 229.867 156 232Z" fill="#F03250"/>
</g>
<defs>
<clipPath id="clip0_141_30">
<rect width="266.667" height="266.667" fill="white"/>
</clipPath>
</defs>
</svg>
