<svg width="1024" height="1024" viewBox="0 0 1024 1024" fill="none" xmlns="http://www.w3.org/2000/svg">
<path d="M418.4 148V436.7H147V148H418.4ZM444.5 100H120.9C108.8 100 99 109.8 99 121.9V462.7C99 474.8 108.8 484.6 120.9 484.6H444.4C456.5 484.6 466.3 474.8 466.3 462.7V121.9C466.4 109.8 456.6 100 444.5 100ZM841.9 148V436.7H570.4V148H841.9ZM867.9 100H544.4C532.3 100 522.5 109.8 522.5 121.9V462.7C522.5 474.8 532.3 484.6 544.4 484.6H867.9C880 484.6 889.8 474.8 889.8 462.7V121.9C889.9 109.8 880.1 100 867.9 100ZM418.4 591.6V880.3H147V591.6H418.4ZM444.5 543.6H120.9C108.8 543.6 99 553.4 99 565.5V906.3C99 918.4 108.8 928.2 120.9 928.2H444.4C456.5 928.2 466.3 918.4 466.3 906.3V565.5C466.4 553.4 456.6 543.6 444.5 543.6ZM706.2 585.3C742.3 585.3 776.3 599.4 801.8 624.9C827.3 650.4 841.4 684.4 841.4 720.5C841.4 756.6 827.3 790.6 801.8 816.1C776.3 841.6 742.3 855.7 706.2 855.7C670.1 855.7 636.1 841.6 610.6 816.1C585 790.5 571 756.6 571 720.5C571 684.4 585.1 650.4 610.6 624.9C636.1 599.4 670 585.3 706.2 585.3ZM706.2 537.3C605 537.3 523 619.3 523 720.5C523 821.7 605 903.7 706.2 903.7C807.4 903.7 889.4 821.7 889.4 720.5C889.4 619.3 807.3 537.3 706.2 537.3Z" fill="#F03250"/>
<path d="M903.9 926.5C897.8 926.5 891.6 924.2 886.9 919.5L818.7 851.3C809.3 841.9 809.3 826.7 818.7 817.4C828.1 808 843.3 808 852.6 817.4L920.8 885.6C930.2 895 930.2 910.2 920.8 919.5C916.2 924.2 910.1 926.5 903.9 926.5Z" fill="#F03250"/>
</svg>
