<svg width="683" height="683" viewBox="0 0 683 683" fill="none" xmlns="http://www.w3.org/2000/svg">
<path d="M428.667 95.3333C425.6 98.2666 425.333 99.6 425.333 110.4C425.333 124.267 427.867 129.333 434.8 129.333C442.133 129.333 444 125.733 444 110.667C444 99.0666 443.6 96.9333 441.333 94.6666C437.733 91.0666 432.533 91.3333 428.667 95.3333Z" fill="#F03250"/>
<path d="M320 129.333C315.2 134.133 316.533 138.133 326.267 148.133C334.133 156.267 335.6 157.333 340.133 157.333C343.867 157.333 345.733 156.533 347.2 154.4C351.067 148.933 349.867 145.6 340.4 135.867C332.933 128.133 330.933 126.667 327.067 126.667C324.4 126.667 321.6 127.733 320 129.333Z" fill="#F03250"/>
<path d="M530.267 135.733C520.533 145.467 518.8 150.667 523.733 155.067C528.8 159.6 533.467 158 543.067 148.267C552.8 138.533 554.533 133.333 549.6 128.933C544.533 124.4 539.867 126 530.267 135.733Z" fill="#F03250"/>
<path d="M416 150C385.467 156.8 361.467 175.867 348.533 203.6C341.6 218.4 339.6 228.667 340.267 247.333C341.2 273.333 349.067 291.333 367.467 310.8C372.8 316.4 377.467 322.4 377.867 324.133C378.267 325.867 378.8 335.733 379.067 346C379.467 368.133 381.733 374.933 391.867 384.4C402.133 394 407.333 395.333 435.333 395.333C455.6 395.333 460.267 394.933 465.333 392.933C474.667 389.067 482 382.267 486.533 373.067C490.533 365.2 490.667 364.267 490.667 347.467C490.667 337.867 491.2 328 491.867 325.6C492.667 323.2 497.467 316.667 502.667 311.067C522.667 289.6 532 264.933 530.267 238C528.667 213.333 520 194.667 502 176.667C488.933 163.467 478.667 157.2 462 152C449.733 148.267 428 147.333 416 150ZM458.8 170.667C482.133 178.533 500.533 197.067 508.133 220.267C510.667 228 511.333 232.8 511.333 244C511.333 266.667 504.533 282.133 486.133 301.333C480.533 307.333 475.6 313.733 474.667 316.533L473.067 321.333H435.2H397.333L394 314.667C392.133 311.067 386.533 303.867 381.6 298.8C371.467 288.533 364 275.733 360.667 263.2C358.133 253.333 358.133 234.8 360.667 224.933C368 196.933 390.533 175.2 419.333 168.533C430.133 166 447.733 166.933 458.8 170.667ZM472 351.2C472 364.533 469.333 369.6 460 374.4C454.4 377.333 452.667 377.467 433.333 377.067C414.533 376.667 412.267 376.4 407.733 373.6C400.667 369.2 397.333 361.467 397.333 349.6V340H434.667H472V351.2Z" fill="#F03250"/>
<path d="M451.333 232C443.2 240 436 246.667 435.333 246.667C434.667 246.667 430 242.667 425.067 237.733C417.733 230.533 415.333 228.933 411.867 228.933C406.8 228.933 402.667 233.2 402.667 238.4C402.667 242.8 428.133 268.8 433.733 270.133C437.333 270.933 439.067 269.467 458.133 250.4C480.133 228.4 481.333 226.533 475.333 220.667C469.867 215.067 467.467 216.133 451.333 232Z" fill="#F03250"/>
<path d="M282.667 233.333C281.067 234.933 280 237.733 280 240.533C280 247.733 283.467 249.333 298.8 249.333C313.333 249.333 316.4 247.6 316.4 239.733C316.4 232.667 312.4 230.667 297.867 230.667C287.067 230.667 284.933 231.067 282.667 233.333Z" fill="#F03250"/>
<path d="M556.8 233.467C552.533 236.8 552.133 242.8 556 246.667C558.267 248.933 560.4 249.333 571.733 249.333C583.733 249.333 585.067 249.067 587.733 246.267C591.6 242.267 591.467 238 587.333 234C584.4 230.933 583.067 230.667 572.267 230.667C562.267 230.667 559.867 231.067 556.8 233.467Z" fill="#F03250"/>
<path d="M99.2 362.8C96.8 365.467 96.6667 369.333 96.6667 474.133V582.533L99.7334 585.6L102.8 588.667L157.733 589.067C187.867 589.333 214.667 589.067 217.067 588.667C225.333 587.2 226.667 584.4 226.667 568.667C226.667 558.4 227.067 554.667 228.4 554.667C229.2 554.667 260.4 559.2 297.733 564.667C334.933 570.133 369.733 574.933 375.067 575.467C386.933 576.533 404.933 574.267 417.867 570.133C423.067 568.533 462.133 552.133 504.667 533.867C573.333 504.4 582.533 500 587.6 495.067C603.467 479.333 597.733 452 576.533 443.2C568.8 440 559.067 441.067 502 452C471.333 457.867 446.133 462.533 446 462.4C445.867 462.133 444.267 459.333 442.4 456C437.733 448 432.8 443.467 424.667 439.733C418.667 437.067 415.333 436.667 391.333 436C365.067 435.333 364.533 435.333 358.267 431.6C354.533 429.333 349.2 424.4 345.6 419.6C336.4 407.467 331.067 402.667 321.333 398.133L312.667 394L269.733 393.6L226.667 393.2V380.133C226.667 368.933 226.267 366.533 223.867 363.467L221.2 360H161.467C102.4 360 101.733 360 99.2 362.8ZM207.733 474.267L207.333 570H161.333H115.333L114.933 474.267L114.667 378.667H161.333H208L207.733 474.267ZM316.4 416.4C320.133 418.667 324.667 422.933 327.067 426.4C334 436.667 343.6 445.333 353.067 449.733C362 454 362.133 454 388.667 454.667C417.333 455.467 418.667 455.733 424.667 462.933C427.867 466.8 428.133 467.867 427.333 473.867C426.4 482 424 485.867 418.267 489.333C414.133 491.867 411.067 492 350.933 492C288 492 283.867 492.267 281.067 496.533C279.333 499.2 280 505.733 282.267 508.267C284.267 510.533 288.133 510.667 350 510.667C407.6 510.667 416.267 510.4 422 508.4C430.267 505.6 440 496.133 443.2 487.867L445.467 481.867L503.067 470.933C534.8 464.8 562.533 460 564.933 460C570 460 576.667 465.2 577.867 470C579.2 475.333 575.6 482.133 569.733 485.067C555.2 492.533 414.133 552.133 406.667 554.133C389.733 558.533 377.467 557.6 299.067 546L226.667 535.333V473.6V411.867L268.4 412.267L310 412.667L316.4 416.4Z" fill="#F03250"/>
</svg>
